<svg xmlns="http://www.w3.org/2000/svg" viewBox="0 0 128 128" width="128" height="128"><defs><clipPath id="aventurier-12-clip-0"><circle cx="64" cy="64" r="64"/></clipPath><radialGradient id="aventurier-12-rg-1" cx="0.35" cy="0.3" r="0.85"><stop offset="0" stop-color="#dbe9f3"/><stop offset="1" stop-color="#a9c8dc"/></radialGradient><radialGradient id="aventurier-12-rg-2" cx="0.36" cy="0.34" r="0.8"><stop offset="0" stop-color="#e8bb92"/><stop offset="0.6" stop-color="#d9a275"/><stop offset="1" stop-color="#bb7f56"/></radialGradient><linearGradient id="aventurier-12-lg-3" x1="0" y1="0" x2="1" y2="1"><stop offset="0" stop-color="#df7358"/><stop offset="0.6" stop-color="#c8553f"/><stop offset="1" stop-color="#98392a"/></linearGradient><linearGradient id="aventurier-12-lg-4" x1="0" y1="0" x2="1" y2="1"><stop offset="0" stop-color="#8e5e3b"/><stop offset="0.55" stop-color="#6b4428"/><stop offset="1" stop-color="#4d301c"/></linearGradient></defs><g clip-path="url(#aventurier-12-clip-0)"><rect width="128" height="128" fill="url(#aventurier-12-rg-1)"/><circle cx="30" cy="26" r="26" fill="#fff" fill-opacity=".25"/><path d="M31 112 Q22 32 64 26 Q106 32 97 112 Q84 118 80 100 L48 100 Q44 118 31 112Z" fill="#6b4428"/><path d="M90 64 Q98 90 94 110" fill="none" stroke="#4d301c" stroke-width="3" stroke-linecap="round"/><path d="M14 132 Q16 102 44 96 L84 96 Q112 102 114 132Z" fill="url(#aventurier-12-lg-3)"/><path d="M84 96 Q108 102 112 128 L114 132 L96 132 Q98 110 84 100Z" fill="#98392a" opacity=".45"/><path d="M54 84 L54 100 Q64 106 74 100 L74 84Z" fill="#bb7f56"/><path d="M48 97 Q64 110 80 97 L76 95 Q64 104 52 95Z" fill="#f6f0df"/><path d="M40 100 L78 132" stroke="#8f5d3b" stroke-width="6"/><path d="M40 100 L78 132" stroke="#c48a55" stroke-width="1.6"/><ellipse cx="36" cy="64" rx="5" ry="7" fill="#bb7f56"/><ellipse cx="92" cy="64" rx="5" ry="7" fill="#bb7f56"/><ellipse cx="64" cy="60" rx="29" ry="30" fill="url(#aventurier-12-rg-2)"/><ellipse cx="53" cy="64" rx="3.8" ry="4.8" fill="#2a2233"/><circle cx="51.7" cy="62.2" r="1.5" fill="#fff"/><ellipse cx="75" cy="64" rx="3.8" ry="4.8" fill="#2a2233"/><circle cx="73.7" cy="62.2" r="1.5" fill="#fff"/><path d="M48 55 Q53 52 58 54.5 M70 54.5 Q75 52 80 55" fill="none" stroke="#4d301c" stroke-width="2" stroke-linecap="round"/><ellipse cx="46" cy="73" rx="5" ry="3" fill="#ef8f7c" opacity=".45"/><ellipse cx="82" cy="73" rx="5" ry="3" fill="#ef8f7c" opacity=".45"/><path d="M62.5 70 Q64 72 65.5 70" fill="none" stroke="#bb7f56" stroke-width="1.6" stroke-linecap="round"/><path d="M58 77 Q64 82 70 77" fill="none" stroke="#9c4a3c" stroke-width="2.2" stroke-linecap="round"/><path d="M34 58 Q33 22 64 22 Q95 22 94 58 Q88 40 68 38 Q50 38 42 50 Q38 54 34 58Z" fill="url(#aventurier-12-lg-4)"/><path d="M64 24 L66 38" stroke="#4d301c" stroke-width="1.6" opacity=".7"/><path d="M48 30 Q56 24 62 26" fill="none" stroke="#8e5e3b" stroke-width="3" stroke-linecap="round" opacity=".8"/><path d="M35 46 Q64 30 93 46" fill="none" stroke="#c8553f" stroke-width="5" stroke-linecap="round"/></g></svg>