<svg xmlns="http://www.w3.org/2000/svg" viewBox="0 0 128 128" width="128" height="128"><defs><clipPath id="aventurier-02-clip-0"><circle cx="64" cy="64" r="64"/></clipPath><radialGradient id="aventurier-02-rg-1" cx="0.35" cy="0.3" r="0.85"><stop offset="0" stop-color="#fbe6cf"/><stop offset="1" stop-color="#f0c39a"/></radialGradient><radialGradient id="aventurier-02-rg-2" cx="0.36" cy="0.34" r="0.8"><stop offset="0" stop-color="#e8bb92"/><stop offset="0.6" stop-color="#d9a275"/><stop offset="1" stop-color="#bb7f56"/></radialGradient><linearGradient id="aventurier-02-lg-3" x1="0" y1="0" x2="1" y2="1"><stop offset="0" stop-color="#5f9c96"/><stop offset="0.6" stop-color="#3f7f7a"/><stop offset="1" stop-color="#2b5d59"/></linearGradient><linearGradient id="aventurier-02-lg-4" x1="0" y1="0" x2="1" y2="1"><stop offset="0" stop-color="#4a3d44"/><stop offset="0.55" stop-color="#2b2227"/><stop offset="1" stop-color="#1a1418"/></linearGradient></defs><g clip-path="url(#aventurier-02-clip-0)"><rect width="128" height="128" fill="url(#aventurier-02-rg-1)"/><circle cx="30" cy="26" r="26" fill="#fff" fill-opacity=".25"/><path d="M88 42 Q110 46 108 74 Q106 94 94 102 Q100 82 92 64Z" fill="#2b2227"/><path d="M100 52 Q108 68 100 88" fill="none" stroke="#1a1418" stroke-width="2.4" stroke-linecap="round"/><path d="M14 132 Q16 102 44 96 L84 96 Q112 102 114 132Z" fill="url(#aventurier-02-lg-3)"/><path d="M84 96 Q108 102 112 128 L114 132 L96 132 Q98 110 84 100Z" fill="#2b5d59" opacity=".45"/><path d="M54 84 L54 100 Q64 106 74 100 L74 84Z" fill="#bb7f56"/><path d="M48 97 Q64 110 80 97 L76 95 Q64 104 52 95Z" fill="#f6f0df"/><path d="M40 100 L78 132" stroke="#8f5d3b" stroke-width="6"/><path d="M40 100 L78 132" stroke="#c48a55" stroke-width="1.6"/><ellipse cx="36" cy="64" rx="5" ry="7" fill="#bb7f56"/><ellipse cx="92" cy="64" rx="5" ry="7" fill="#bb7f56"/><ellipse cx="64" cy="60" rx="29" ry="30" fill="url(#aventurier-02-rg-2)"/><ellipse cx="53" cy="64" rx="3.8" ry="4.8" fill="#2a2233"/><circle cx="51.7" cy="62.2" r="1.5" fill="#fff"/><ellipse cx="75" cy="64" rx="3.8" ry="4.8" fill="#2a2233"/><circle cx="73.7" cy="62.2" r="1.5" fill="#fff"/><path d="M48 55 Q53 52 58 54.5 M70 54.5 Q75 52 80 55" fill="none" stroke="#1a1418" stroke-width="2" stroke-linecap="round"/><ellipse cx="46" cy="73" rx="5" ry="3" fill="#ef8f7c" opacity=".45"/><ellipse cx="82" cy="73" rx="5" ry="3" fill="#ef8f7c" opacity=".45"/><path d="M62.5 70 Q64 72 65.5 70" fill="none" stroke="#bb7f56" stroke-width="1.6" stroke-linecap="round"/><path d="M58 77 Q64 82 70 77" fill="none" stroke="#9c4a3c" stroke-width="2.2" stroke-linecap="round"/><path d="M34 58 Q33 22 64 22 Q95 22 94 58 Q88 40 68 38 Q50 38 42 50 Q38 54 34 58Z" fill="url(#aventurier-02-lg-4)"/><path d="M64 24 L66 38" stroke="#1a1418" stroke-width="1.6" opacity=".7"/><path d="M48 30 Q56 24 62 26" fill="none" stroke="#4a3d44" stroke-width="3" stroke-linecap="round" opacity=".8"/></g></svg>