<svg xmlns="http://www.w3.org/2000/svg" viewBox="0 0 128 128" width="128" height="128"><defs><clipPath id="aventurier-01-clip-0"><circle cx="64" cy="64" r="64"/></clipPath><radialGradient id="aventurier-01-rg-1" cx="0.35" cy="0.3" r="0.85"><stop offset="0" stop-color="#dbe9f3"/><stop offset="1" stop-color="#a9c8dc"/></radialGradient><radialGradient id="aventurier-01-rg-2" cx="0.36" cy="0.34" r="0.8"><stop offset="0" stop-color="#fde6d3"/><stop offset="0.6" stop-color="#f6d3b8"/><stop offset="1" stop-color="#e3b394"/></radialGradient><linearGradient id="aventurier-01-lg-3" x1="0" y1="0" x2="1" y2="1"><stop offset="0" stop-color="#df7358"/><stop offset="0.6" stop-color="#c8553f"/><stop offset="1" stop-color="#98392a"/></linearGradient><linearGradient id="aventurier-01-lg-4" x1="0" y1="0" x2="1" y2="1"><stop offset="0" stop-color="#8e5e3b"/><stop offset="0.55" stop-color="#6b4428"/><stop offset="1" stop-color="#4d301c"/></linearGradient></defs><g clip-path="url(#aventurier-01-clip-0)"><rect width="128" height="128" fill="url(#aventurier-01-rg-1)"/><circle cx="30" cy="26" r="26" fill="#fff" fill-opacity=".25"/><path d="M14 132 Q16 102 44 96 L84 96 Q112 102 114 132Z" fill="url(#aventurier-01-lg-3)"/><path d="M84 96 Q108 102 112 128 L114 132 L96 132 Q98 110 84 100Z" fill="#98392a" opacity=".45"/><path d="M54 84 L54 100 Q64 106 74 100 L74 84Z" fill="#e3b394"/><path d="M42 98 Q64 112 86 98 L88 106 Q64 122 40 106Z" fill="#f1e3c4"/><path d="M70 108 L76 128 L66 128 L64 110Z" fill="#e0cfa6"/><path d="M40 100 L78 132" stroke="#8f5d3b" stroke-width="6"/><path d="M40 100 L78 132" stroke="#c48a55" stroke-width="1.6"/><ellipse cx="36" cy="64" rx="5" ry="7" fill="#e3b394"/><ellipse cx="92" cy="64" rx="5" ry="7" fill="#e3b394"/><ellipse cx="64" cy="60" rx="29" ry="30" fill="url(#aventurier-01-rg-2)"/><ellipse cx="53" cy="64" rx="3.8" ry="4.8" fill="#2a2233"/><circle cx="51.7" cy="62.2" r="1.5" fill="#fff"/><ellipse cx="75" cy="64" rx="3.8" ry="4.8" fill="#2a2233"/><circle cx="73.7" cy="62.2" r="1.5" fill="#fff"/><path d="M48 55 Q53 52 58 54.5 M70 54.5 Q75 52 80 55" fill="none" stroke="#4d301c" stroke-width="2" stroke-linecap="round"/><ellipse cx="46" cy="73" rx="5" ry="3" fill="#ef8f7c" opacity=".45"/><ellipse cx="82" cy="73" rx="5" ry="3" fill="#ef8f7c" opacity=".45"/><path d="M62.5 70 Q64 72 65.5 70" fill="none" stroke="#e3b394" stroke-width="1.6" stroke-linecap="round"/><path d="M58 77 Q64 82 70 77" fill="none" stroke="#9c4a3c" stroke-width="2.2" stroke-linecap="round"/><path d="M34 58 Q33 22 64 22 Q95 22 94 58 Q86 42 76 44 Q72 50 66 46 Q60 52 54 46 Q46 50 44 44 Q38 48 34 58Z" fill="url(#aventurier-01-lg-4)"/><path d="M50 30 Q60 22 74 26" fill="none" stroke="#8e5e3b" stroke-width="3" stroke-linecap="round" opacity=".8"/></g></svg>